<svg width="118" height="118" viewBox="0 0 118 118" fill="none" xmlns="http://www.w3.org/2000/svg">
<g id="Frame" clip-path="url(#clip0_1_15)">
<g id="XMLID_1_">
<g id="XMLID_32_">
<path id="XMLID_33_" d="M61.2189 114.661C60.9653 112.582 62.445 110.692 64.5378 110.44C66.6306 110.188 68.5332 111.658 68.7868 113.758C69.0405 115.837 67.5608 117.727 65.468 117.979C65.2988 118 65.1509 118 65.0029 118C63.1003 118 61.4515 116.593 61.2189 114.661ZM37.0566 114.598C35.0907 113.842 34.0971 111.658 34.837 109.705C35.5769 107.752 37.7754 106.765 39.7413 107.5C41.7073 108.235 42.7008 110.44 41.961 112.393C41.3691 113.905 39.9316 114.85 38.3884 114.85C37.9656 114.829 37.5006 114.766 37.0566 114.598ZM86.8821 106.933C85.6772 105.211 86.1211 102.859 87.8546 101.641C89.588 100.444 91.9556 100.885 93.1605 102.607C94.3655 104.329 93.9427 106.681 92.2093 107.899C91.5328 108.361 90.7929 108.571 90.0319 108.571C88.827 108.55 87.622 107.983 86.8821 106.933ZM13.5074 98.4695C12.1122 96.8945 12.2601 94.5005 13.8245 93.1145C15.4099 91.7285 17.8198 91.8545 19.215 93.4295C20.6102 95.0045 20.4834 97.3985 18.8979 98.7845C18.1792 99.4355 17.2702 99.7505 16.3612 99.7505C15.3042 99.7505 14.2684 99.3095 13.5074 98.4695ZM106.013 88.2004C104.153 87.2134 103.434 84.9244 104.407 83.0764C105.379 81.2284 107.683 80.5144 109.565 81.4804C111.425 82.4464 112.144 84.7564 111.171 86.6044C110.474 87.9064 109.163 88.6414 107.789 88.6414C107.176 88.6414 106.563 88.4944 106.013 88.2004ZM0.168422 73.3323C-0.317784 71.2953 0.929439 69.2373 2.95882 68.7543C4.9882 68.2503 7.05986 69.4893 7.5672 71.5263C8.07455 73.5423 6.82732 75.6003 4.77681 76.1043C4.48085 76.1883 4.16376 76.2093 3.84667 76.2093C2.15552 76.2093 0.591209 75.0543 0.168422 73.3323ZM110.368 59.0102C110.368 58.9682 110.368 58.9262 110.368 58.9052C110.368 58.8632 110.368 58.8212 110.368 58.8002C110.347 56.7002 112.059 54.9992 114.173 54.9992C116.287 54.9782 117.999 56.6792 117.999 58.7582C117.999 58.8002 117.999 58.8422 117.999 58.8842C117.999 58.9262 117.999 58.9682 117.999 58.9892C117.999 61.0892 116.287 62.7902 114.173 62.7902C112.059 62.8112 110.368 61.1102 110.368 59.0102ZM2.91654 49.4971C0.866021 49.0141 -0.381202 46.9561 0.105003 44.9191C0.591209 42.8821 2.68401 41.643 4.71339 42.126C6.76391 42.6091 8.01113 44.6881 7.50379 46.7041C7.081 48.4261 5.51668 49.6021 3.80439 49.6021C3.50844 49.6231 3.23363 49.5811 2.91654 49.4971ZM104.301 34.755C103.329 32.907 104.026 30.618 105.886 29.6309C107.747 28.6439 110.051 29.3579 111.044 31.206C112.038 33.054 111.319 35.343 109.459 36.33C108.888 36.624 108.275 36.771 107.683 36.771C106.309 36.792 104.999 36.057 104.301 34.755ZM13.6976 25.0949C12.1122 23.7089 11.9642 21.3149 13.3594 19.7399C14.7546 18.1648 17.1645 18.0178 18.7499 19.4039C20.3354 20.7899 20.4834 23.1839 19.0882 24.7589C18.3271 25.5989 17.2913 26.0399 16.2132 26.0399C15.3254 26.0399 14.4164 25.7249 13.6976 25.0949ZM87.6854 16.2538C85.952 15.0778 85.5081 12.7048 86.6919 10.9828C87.8968 9.26077 90.2644 8.81977 91.9979 10.0168C93.7313 11.2138 94.1964 13.5448 92.9914 15.2878C92.2515 16.3588 91.0677 16.9258 89.8417 16.9258C89.1018 16.9258 88.3619 16.7158 87.6854 16.2538ZM34.6467 8.42077C33.8857 6.46775 34.8793 4.28373 36.8452 3.52772C38.8112 2.79272 41.0097 3.75873 41.7707 5.71174C42.5106 7.66476 41.5382 9.84878 39.5722 10.6048C39.1072 10.7728 38.6632 10.8568 38.1982 10.8568C36.6761 10.8568 35.2386 9.93278 34.6467 8.42077ZM64.3264 7.55976C62.2336 7.32876 60.7327 5.43874 60.9864 3.35972C61.2189 1.2807 63.1426 -0.210308 65.2143 0.0416943C67.3071 0.272696 68.808 2.16271 68.5543 4.24173C68.3218 6.17375 66.694 7.58076 64.7704 7.58076C64.6435 7.58076 64.4955 7.55976 64.3264 7.55976Z" fill="url(#paint0_linear_1_15)"/>
</g>
<g id="XMLID_17_">
<path id="XMLID_18_" d="M60.6696 104.539C60.4582 102.838 61.6843 101.284 63.3966 101.095C65.1089 100.885 66.6732 102.103 66.8635 103.804C67.0749 105.505 65.8488 107.059 64.1365 107.248C64.0097 107.269 63.8828 107.269 63.756 107.269C62.2128 107.269 60.8599 106.135 60.6696 104.539ZM40.9043 104.476C39.2977 103.867 38.4733 102.082 39.1075 100.486C39.6994 98.8898 41.5174 98.0708 43.124 98.6798C44.7305 99.2888 45.555 101.074 44.9419 102.67C44.4557 103.93 43.2719 104.686 42.0247 104.686C41.6442 104.686 41.2637 104.623 40.9043 104.476ZM81.6822 98.2178C80.7098 96.8108 81.0691 94.8788 82.4643 93.8918C83.8807 92.9258 85.8255 93.2828 86.819 94.6688C87.7915 96.0758 87.4321 98.0078 86.0369 98.9948C85.4873 99.3518 84.8742 99.5408 84.2612 99.5408C83.2465 99.5408 82.2952 99.0788 81.6822 98.2178ZM21.6252 91.2878C20.4837 90.0067 20.5894 88.0537 21.9 86.9197C23.1895 85.7857 25.1555 85.8907 26.297 87.1717C27.4385 88.4527 27.3328 90.4057 26.0433 91.5608C25.4514 92.0858 24.7116 92.3378 23.9717 92.3378C23.105 92.3378 22.2594 91.9808 21.6252 91.2878ZM97.3253 82.9087C95.8033 82.0897 95.1902 80.2207 96.0147 78.7086C96.818 77.1966 98.6994 76.6086 100.221 77.4066C101.743 78.2046 102.335 80.0947 101.532 81.5857C100.961 82.6567 99.8832 83.2447 98.7628 83.2447C98.2766 83.2447 97.7692 83.1397 97.3253 82.9087ZM10.7173 70.7286C10.2945 69.0696 11.3303 67.3895 13.0003 66.9695C14.6704 66.5495 16.3615 67.5575 16.7843 69.2376C17.1859 70.8966 16.1712 72.5766 14.5012 72.9966C14.2476 73.0596 13.9939 73.0806 13.7402 73.0806C12.345 73.0806 11.0767 72.1356 10.7173 70.7286ZM100.877 59.0105C100.898 58.9895 100.898 58.9895 100.898 58.9685C100.898 58.9265 100.877 58.8845 100.877 58.8635C100.877 57.1415 102.272 55.7554 103.984 55.7344C105.718 55.7344 107.113 57.1205 107.113 58.8215C107.113 58.8635 107.113 58.8845 107.113 58.9265C107.113 58.9475 107.113 58.9895 107.113 59.0105C107.113 60.7325 105.718 62.1185 104.005 62.1185C102.272 62.1185 100.877 60.7325 100.877 59.0105ZM12.9792 51.2404C11.3092 50.8414 10.2734 49.1614 10.6962 47.4814C10.6962 47.4814 10.6962 47.4814 10.675 47.4814C11.0978 45.8224 12.7678 44.7934 14.459 45.2134C16.129 45.6124 17.1648 47.2924 16.7632 48.9724C16.4038 50.3794 15.1354 51.3244 13.7191 51.3244C13.4654 51.3244 13.2117 51.3034 12.9792 51.2404ZM95.9301 39.1653C95.1268 37.6533 95.6976 35.7843 97.2196 34.9653C98.7417 34.1673 100.623 34.7343 101.447 36.2463C102.272 37.7583 101.68 39.6483 100.158 40.4463C99.6929 40.6773 99.1856 40.8033 98.6994 40.8033C97.579 40.8243 96.5009 40.2153 95.9301 39.1653ZM21.7943 31.2482C20.5048 30.1142 20.378 28.1612 21.5195 26.8802C22.661 25.5992 24.627 25.4732 25.9165 26.6072C27.206 27.7412 27.3328 29.6942 26.1913 30.9962C25.5571 31.6892 24.7116 32.0462 23.8448 32.0462C23.1261 32.0252 22.3862 31.7732 21.7943 31.2482ZM82.3164 24.0452C80.9 23.0792 80.5406 21.1472 81.5131 19.7191C82.4855 18.3121 84.4303 17.9551 85.8466 18.9211C87.263 19.8871 87.6223 21.8192 86.6711 23.2262C86.058 24.1082 85.0856 24.5702 84.0921 24.5702C83.479 24.5912 82.866 24.4232 82.3164 24.0452ZM38.9384 17.6191C38.3253 16.0231 39.1286 14.2381 40.7352 13.6081C42.3418 12.9991 44.1598 13.7971 44.7728 15.3931C45.407 16.9891 44.5826 18.7741 42.976 19.4041C42.6166 19.5511 42.215 19.6141 41.8556 19.6141C40.5872 19.6141 39.4034 18.8581 38.9384 17.6191ZM63.2275 16.9051C61.5152 16.7161 60.2891 15.1831 60.4794 13.4611C60.6908 11.7601 62.234 10.5421 63.9462 10.7521C65.6585 10.9621 66.8846 12.4951 66.6732 14.1961C66.483 15.7711 65.13 16.9471 63.5657 16.9471C63.46 16.9261 63.3332 16.9261 63.2275 16.9051Z" fill="url(#paint1_linear_1_15)"/>
</g>
<g id="XMLID_2_">
<path id="XMLID_3_" d="M60.2026 95.9079C60.0335 94.5219 61.0271 93.2829 62.4011 93.1149C63.7963 92.9469 65.0647 93.9129 65.2338 95.3199C65.4029 96.6849 64.4094 97.9449 63.0142 98.1129C62.9085 98.1339 62.8028 98.1339 62.7182 98.1339C61.4498 98.1129 60.3506 97.1889 60.2026 95.9079ZM44.179 95.8449C42.8683 95.3619 42.213 93.8919 42.7204 92.6109C43.2066 91.3089 44.6652 90.6579 45.9758 91.1409C47.2865 91.6239 47.9418 93.0939 47.4556 94.3749C47.0751 95.3829 46.1027 96.0129 45.088 96.0129C44.792 96.0129 44.4749 95.9709 44.179 95.8449ZM77.2198 90.7629C76.4165 89.6079 76.7125 88.0539 77.854 87.2559C78.9955 86.4788 80.581 86.7518 81.3843 87.8859C82.1664 89.0409 81.8916 90.5949 80.7501 91.3929C80.3062 91.6869 79.7988 91.8339 79.2915 91.8339C78.4882 91.8549 77.706 91.4769 77.2198 90.7629ZM28.5781 85.1558C27.648 84.1268 27.7325 82.5308 28.7895 81.6068C29.8253 80.6828 31.4319 80.7668 32.3621 81.8168C33.2922 82.8458 33.2076 84.4418 32.1507 85.3658C31.6645 85.7859 31.0726 85.9958 30.4807 85.9958C29.7619 86.0168 29.0643 85.7228 28.5781 85.1558ZM89.8823 78.3728C88.6562 77.7218 88.17 76.2098 88.8253 74.9708C89.4807 73.7527 91.0027 73.2697 92.2288 73.9207C93.4549 74.5718 93.9411 76.0838 93.3069 77.3018C92.8418 78.1628 91.9751 78.6458 91.045 78.6458C90.6645 78.6458 90.2628 78.5618 89.8823 78.3728ZM19.7419 68.5027C19.4036 67.1587 20.2281 65.7937 21.581 65.4577C22.9339 65.1217 24.308 65.9407 24.6462 67.2847C24.9844 68.6287 24.16 69.9937 22.7859 70.3297C22.5745 70.3717 22.3843 70.4137 22.194 70.4137C21.0525 70.4137 20.0167 69.6577 19.7419 68.5027ZM92.7784 59.0106C92.7784 58.9896 92.7784 58.9686 92.7784 58.9266C92.7784 58.9056 92.7784 58.8846 92.7784 58.8636C92.7573 57.4776 93.8988 56.3436 95.294 56.3436C96.6892 56.3226 97.8307 57.4566 97.8307 58.8426C97.8307 58.8636 97.8096 58.8846 97.8096 58.9266C97.8096 58.9476 97.8307 58.9686 97.8307 59.0106C97.8307 60.3966 96.6892 61.5306 95.294 61.5306C93.9199 61.5306 92.7784 60.3966 92.7784 59.0106ZM21.5598 52.7106C20.2069 52.3746 19.3614 51.0095 19.6996 49.6865C20.0378 48.3425 21.3907 47.5025 22.7437 47.8385C24.0966 48.1745 24.921 49.5395 24.6039 50.8835C24.3291 52.0386 23.2933 52.7946 22.1517 52.7946C21.9615 52.7946 21.7501 52.7526 21.5598 52.7106ZM88.7619 42.9455C88.1066 41.7275 88.5717 40.1945 89.7978 39.5644C91.0238 38.9134 92.567 39.3754 93.2223 40.5935C93.8777 41.8115 93.4126 43.3445 92.1865 43.9955C91.806 44.2055 91.4044 44.2895 90.9816 44.2895C90.0937 44.2895 89.2059 43.8065 88.7619 42.9455ZM28.705 36.5194C27.648 35.5954 27.5423 34.0204 28.4724 32.9914C29.4026 31.9414 30.988 31.8364 32.045 32.7604C33.0808 33.6844 33.1865 35.2594 32.2564 36.3094C31.7702 36.8554 31.0514 37.1494 30.3538 37.1494C29.7619 37.1494 29.17 36.9604 28.705 36.5194ZM77.7483 30.6814C76.6068 29.9044 76.3108 28.3293 77.093 27.1743C77.8751 26.0403 79.4606 25.7463 80.6021 26.5233C81.7648 27.3003 82.0607 28.8754 81.2574 30.0094C80.7712 30.7234 79.9679 31.1014 79.1646 31.1014C78.6784 31.1224 78.1922 30.9754 77.7483 30.6814ZM42.5724 25.4733C42.0862 24.1713 42.7415 22.7223 44.031 22.2183C45.3416 21.7353 46.8003 22.3653 47.3076 23.6673C47.7938 24.9483 47.1596 26.4183 45.849 26.9223C45.553 27.0273 45.2571 27.0903 44.94 27.0903C43.9253 27.0903 42.974 26.4813 42.5724 25.4733ZM62.2743 24.9063C60.8791 24.7383 59.8855 23.4993 60.0546 22.1133C60.2238 20.7273 61.471 19.7403 62.8662 19.9083C64.2614 20.0553 65.2549 21.3153 65.0858 22.7013C64.9378 23.9823 63.8597 24.9063 62.5702 24.9063C62.4645 24.9273 62.38 24.9273 62.2743 24.9063Z" fill="url(#paint2_linear_1_15)"/>
</g>
</g>
</g>
<defs>
<linearGradient id="paint0_linear_1_15" x1="3.23093e-06" y1="59.0068" x2="92.8677" y2="21.4854" gradientUnits="userSpaceOnUse">
<stop stop-color="#FF62B7"/>
<stop offset="1" stop-color="#9F53FF"/>
</linearGradient>
<linearGradient id="paint1_linear_1_15" x1="10.6016" y1="58.9987" x2="86.5666" y2="28.3192" gradientUnits="userSpaceOnUse">
<stop stop-color="#FF62B7"/>
<stop offset="1" stop-color="#9F53FF"/>
</linearGradient>
<linearGradient id="paint2_linear_1_15" x1="19.625" y1="59.0118" x2="81.1849" y2="34.1548" gradientUnits="userSpaceOnUse">
<stop stop-color="#FF62B7"/>
<stop offset="1" stop-color="#9F53FF"/>
</linearGradient>
<clipPath id="clip0_1_15">
<rect width="118" height="118" fill="white"/>
</clipPath>
</defs>
</svg>
