<svg version="1.2" xmlns="http://www.w3.org/2000/svg" viewBox="0 0 146 128" width="146" height="128">
	<title>lines-svg</title>
	<defs>
		<linearGradient id="g1" x2="1" gradientUnits="userSpaceOnUse" gradientTransform="matrix(60.096,39.898,-74.76,112.606,44.628,35.841)">
			<stop offset="0" stop-color="#ff62b7"/>
			<stop offset="1" stop-color="#9f53ff"/>
		</linearGradient>
		<linearGradient id="g2" x2="1" gradientUnits="userSpaceOnUse" gradientTransform="matrix(47.722,54.093,-101.357,89.42,52.955,29.453)">
			<stop offset="0" stop-color="#ff62b7"/>
			<stop offset="1" stop-color="#9f53ff"/>
		</linearGradient>
	</defs>
	<style>
		.s0 { fill: none;stroke: url(#g1) } 
		.s1 { fill: none;stroke: url(#g2) } 
	</style>
	<g id="Group 1261152833">
		<path id="Ellipse 766" fill-rule="evenodd" class="s0" d="m101.1 92.3c-15.6 15.7-33 26.7-48.3 31.8-15.4 5.1-28.6 4.3-36.2-3.4-7.7-7.6-8.5-20.8-3.4-36.2 5.1-15.3 16.1-32.7 31.8-48.3 15.6-15.7 33-26.6 48.3-31.8 15.4-5.1 28.6-4.3 36.2 3.4 7.7 7.6 8.5 20.8 3.4 36.2-5.2 15.3-16.1 32.7-31.8 48.3z"/>
		<path id="Ellipse 767" fill-rule="evenodd" class="s1" d="m92.9 98.6c-19.2 11.1-38.8 17.2-54.9 18.2-16.2 1-28.7-3.2-34.1-12.6-5.4-9.4-2.8-22.3 6.1-35.9 8.9-13.5 24-27.3 43.2-38.4 19.2-11.1 38.8-17.2 54.9-18.2 16.2-0.9 28.7 3.3 34.1 12.6 5.4 9.4 2.8 22.4-6.1 35.9-8.9 13.5-24 27.4-43.2 38.4z"/>
	</g>
</svg>